Coordinates
version=1
nRows=7
nColumns=40
inDegrees=yes

Units are S.I. units (second, meters, Newtons, ...)
Angles are in degrees.

endheader
time	pelvis_tilt	pelvis_list	pelvis_rotation	pelvis_tx	pelvis_ty	pelvis_tz	hip_flexion_r	hip_adduction_r	hip_rotation_r	knee_angle_r	knee_angle_r_beta	ankle_angle_r	subtalar_angle_r	mtp_angle_r	hip_flexion_l	hip_adduction_l	hip_rotation_l	knee_angle_l	knee_angle_l_beta	ankle_angle_l	subtalar_angle_l	mtp_angle_l	lumbar_extension	lumbar_bending	lumbar_rotation	arm_flex_r	arm_add_r	arm_rot_r	elbow_flex_r	pro_sup_r	wrist_flex_r	wrist_dev_r	arm_flex_l	arm_add_l	arm_rot_l	elbow_flex_l	pro_sup_l	wrist_flex_l	wrist_dev_l
      0.00000000	     -2.31232961	     -0.66295148	      6.96498065	     -0.68652682	      0.86765046	      1.46649633	     30.42238517	    -10.30277398	    -17.35055406	    -22.88135462	     -0.39935498	      2.88574112	     -7.98526742	      6.40394562	     -6.35974068	      1.11271760	      0.90246665	    -31.05109696	     -0.54194388	      8.76321883	      5.89153361	     -7.19282865	     -3.92774554	      0.40209842	    -14.81557080	    -14.53573336	     -7.77531105	    -24.38886976	     24.31177114	     89.95437384	      0.00000000	      0.00000000	     -2.65035843	     15.57759954	     13.44362803	     76.49692484	     89.95437384	      0.00000000	      0.00000000
      0.01000000	     -2.19682832	     -0.64730378	      7.10563120	     -0.67235861	      0.86733292	      1.46934267	     29.99829402	    -10.11823730	    -17.30447035	    -23.83231358	     -0.41595234	      1.31043725	     -8.55712663	      6.73561698	     -6.72118325	      1.48817150	      0.70646309	    -32.02525623	     -0.55894617	      7.27200543	      6.19838373	     -7.06466328	     -3.67534707	      0.49789201	    -14.62953015	    -14.56864493	     -7.92405831	    -24.60516883	     24.06858767	     89.95437384	      0.00000000	      0.00000000	     -2.99086144	     15.53286351	     13.30855566	     76.47099090	     89.95437384	      0.00000000	      0.00000000
      0.02000000	     -2.15638020	     -0.70644914	      7.18708246	     -0.65860100	      0.86708540	      1.47260200	     30.02384344	     -9.84781747	    -16.59243439	    -25.45187918	     -0.44421909	      0.73355323	     -9.48445880	      6.88669531	     -6.74103675	      1.88420435	      0.29320787	    -33.30632179	     -0.58130498	      5.52337562	      6.72485814	     -6.87776621	     -3.41205657	      0.66105851	    -14.28535452	    -14.64412162	     -7.98429836	    -24.80004809	     24.03979995	     89.95437384	      0.00000000	      0.00000000	     -3.18785065	     15.40132995	     13.25377002	     76.24250305	     89.95437384	      0.00000000	      0.00000000
      0.03000000	     -2.18549662	     -0.83573511	      7.13290781	     -0.64501917	      0.86703172	      1.47594648	     30.30295182	     -9.49055401	    -15.60371573	    -27.24118308	     -0.47544834	      0.04249092	     -9.73823389	      6.96225602	     -6.38451284	      2.30279128	      0.10823023	    -35.01485154	     -0.61112445	      3.24991772	      7.35644922	     -6.53290098	     -3.08306247	      0.91397844	    -13.80410276	    -14.58265828	     -8.08781721	    -24.93214800	     23.91323554	     89.95437384	      0.00000000	      0.00000000	     -3.42617426	     15.21738987	     13.18747225	     75.80635615	     89.95437384	      0.00000000	      0.00000000
      0.04000000	     -2.52469835	     -0.96579437	      7.04002933	     -0.63195368	      0.86678141	      1.47914460	     30.76129549	     -8.95009016	    -14.05977429	    -28.57641500	     -0.49875253	     -1.56757729	    -10.98342323	      7.96341767	     -5.28986650	      2.56287637	     -0.16254099	    -37.24923132	     -0.65012173	      0.91150467	      8.74348566	     -6.47192173	     -2.49896015	      1.16042964	    -13.34651826	    -14.29099064	     -8.18056386	    -25.38459557	     23.60671958	     89.95437384	      0.00000000	      0.00000000	     -3.72147989	     14.91383659	     13.31161621	     75.29624552	     89.95437384	      0.00000000	      0.00000000
      0.05000000	     -2.23125554	     -1.06202104	      7.06659377	     -0.61793048	      0.86759758	      1.48193665	     30.21204103	     -8.56051290	    -13.36328335	    -29.77035358	     -0.51959069	     -2.06021055	    -10.65662054	      7.95664219	     -4.81854898	      3.05603251	      0.08899101	    -39.43411261	     -0.68825510	     -2.38620531	      9.44545782	     -5.96615856	     -2.55941176	      1.45448928	    -12.98405863	    -14.14268392	     -8.40356556	    -25.09503131	     23.60396055	     89.95437384	      0.00000000	      0.00000000	     -4.05417354	     14.63661647	     13.30538529	     74.72883125	     89.95437384	      0.00000000	      0.00000000
      0.06000000	     -2.04970327	     -1.40849271	      7.05068812	     -0.60414329	      0.86830211	      1.48508249	     29.59235240	     -7.80774868	    -12.90461296	    -30.54473218	     -0.53310615	     -1.75617685	    -11.07104065	      8.00258980	     -3.95317551	      3.73813212	      0.14532348	    -41.83340980	     -0.73013074	     -6.48495581	     10.46741364	     -5.38470713	     -2.52079501	      1.97890507	    -12.59183293	    -13.87292539	     -8.59235975	    -24.94625502	     23.57480141	     89.95437384	      0.00000000	      0.00000000	     -4.52164503	     14.32583094	     13.38773330	     74.23257409	     89.95437384	      0.00000000	      0.00000000
